<?xml version="1.0" encoding="utf-8"?>
<!-- Generator: Adobe Illustrator 17.0.0, SVG Export Plug-In . SVG Version: 6.00 Build 0)  -->
<!DOCTYPE svg PUBLIC "-//W3C//DTD SVG 1.1//EN" "http://www.w3.org/Graphics/SVG/1.1/DTD/svg11.dtd">
<svg version="1.1" id="Layer_1" xmlns="http://www.w3.org/2000/svg" xmlns:xlink="http://www.w3.org/1999/xlink" x="0px" y="0px"
	 width="1000px" height="1000px" viewBox="0 0 1000 1000" enable-background="new 0 0 1000 1000" xml:space="preserve">
<circle fill="#F0F0F0" cx="500" cy="500" r="500"/>
<g>
	<path fill="#D80027" d="M478.262,500H1000c0-45.129-6.016-88.848-17.225-130.436H478.262V500z"/>
	<path fill="#D80027" d="M478.262,239.131h448.352c-30.607-49.945-69.742-94.092-115.371-130.436h-332.98V239.131z"/>
	<path fill="#D80027" d="M500,1000c117.674,0,225.832-40.672,311.242-108.695H188.758C274.168,959.328,382.326,1000,500,1000z"/>
	<path fill="#D80027" d="M73.387,760.869h853.227c24.572-40.096,43.629-83.924,56.162-130.436H17.225
		C29.758,676.945,48.814,720.773,73.387,760.869z"/>
</g>
<path fill="#0052B4" d="M231.609,78.082h45.564l-42.383,30.791l16.189,49.822L208.6,127.904l-42.381,30.791l13.984-43.041
	c-37.316,31.084-70.023,67.502-96.977,108.08h14.6l-26.979,19.6c-4.203,7.012-8.234,14.135-12.098,21.363l12.883,39.65
	l-24.035-17.463c-5.975,12.658-11.439,25.602-16.352,38.814l14.193,43.687h52.387l-42.383,30.791L71.633,450l-42.381-30.791
	L3.865,437.654C1.324,458.08,0,478.885,0,500h500c0-276.141,0-308.695,0-500C401.227,0,309.15,28.652,231.609,78.082z M250.98,450
	L208.6,419.209L166.219,450l16.189-49.822l-42.383-30.791h52.387l16.188-49.822l16.188,49.822h52.387l-42.383,30.791L250.98,450z
	 M234.791,254.525l16.189,49.822L208.6,273.557l-42.381,30.791l16.189-49.822l-42.383-30.791h52.387l16.188-49.822l16.188,49.822
	h52.387L234.791,254.525z M430.328,450l-42.381-30.791L345.566,450l16.189-49.822l-42.383-30.791h52.387l16.188-49.822
	l16.188,49.822h52.387l-42.383,30.791L430.328,450z M414.139,254.525l16.189,49.822l-42.381-30.791l-42.381,30.791l16.189-49.822
	l-42.383-30.791h52.387l16.188-49.822l16.188,49.822h52.387L414.139,254.525z M414.139,108.873l16.189,49.822l-42.381-30.791
	l-42.381,30.791l16.189-49.822l-42.383-30.791h52.387l16.188-49.822l16.188,49.822h52.387L414.139,108.873z"/>
</svg>
