<?xml version="1.0" encoding="utf-8"?>
<!-- Generator: Adobe Illustrator 17.0.0, SVG Export Plug-In . SVG Version: 6.00 Build 0)  -->
<!DOCTYPE svg PUBLIC "-//W3C//DTD SVG 1.1//EN" "http://www.w3.org/Graphics/SVG/1.1/DTD/svg11.dtd">
<svg version="1.1" id="Layer_1" xmlns="http://www.w3.org/2000/svg" xmlns:xlink="http://www.w3.org/1999/xlink" x="0px" y="0px"
	 width="1000px" height="1000px" viewBox="0 0 1000 1000" enable-background="new 0 0 1000 1000" xml:space="preserve">
<path fill="#FFDA44" d="M0,500c0,61.16,11.002,119.746,31.1,173.912L500,717.391l468.9-43.479C988.998,619.746,1000,561.16,1000,500
	s-11.002-119.746-31.1-173.912L500,282.609L31.1,326.088C11.002,380.254,0,438.84,0,500z"/>
<g>
	<path fill="#D80027" d="M968.9,326.088C898.254,135.689,714.982,0,500,0S101.746,135.689,31.1,326.088H968.9z"/>
	<path fill="#D80027" d="M31.1,673.912C101.746,864.311,285.018,1000,500,1000s398.254-135.689,468.9-326.088H31.1z"/>
</g>
</svg>
