<?xml version="1.0" encoding="utf-8"?>
<!-- Generator: Adobe Illustrator 17.0.0, SVG Export Plug-In . SVG Version: 6.00 Build 0)  -->
<!DOCTYPE svg PUBLIC "-//W3C//DTD SVG 1.1//EN" "http://www.w3.org/Graphics/SVG/1.1/DTD/svg11.dtd">
<svg version="1.1" id="Capa_1" xmlns="http://www.w3.org/2000/svg" xmlns:xlink="http://www.w3.org/1999/xlink" x="0px" y="0px"
	 width="566.93px" height="432.996px" viewBox="0 66.967 566.93 432.996" enable-background="new 0 66.967 566.93 432.996"
	 xml:space="preserve">
<g>
	<path fill="#0082FF" d="M0,499.963v-277.4C0,136.775,69.808,66.967,155.596,66.967h255.701
		c85.807,0,155.633,69.808,155.633,155.596v47.847c0,85.788-69.808,155.596-155.596,155.596H159.203L0,499.963z M155.596,101.656
		c-66.668,0-120.907,54.239-120.907,120.907v223.03l116.87-54.295h259.775c66.668,0,120.907-54.239,120.907-120.907v-47.847
		c0-66.668-54.258-120.907-120.944-120.907H155.596V101.656z M167.034,219.928c18.223,0,32.988,14.765,32.988,32.988
		c0,18.223-14.765,32.988-32.988,32.988s-32.988-14.765-32.988-32.988C134.046,234.693,148.811,219.928,167.034,219.928z
		 M399.877,219.928c18.223,0,32.988,14.765,32.988,32.988c0,18.223-14.765,32.988-32.988,32.988
		c-18.223,0-32.988-14.765-32.988-32.988C366.889,234.693,381.654,219.928,399.877,219.928z M283.437,219.928
		c18.223,0,32.988,14.765,32.988,32.988c0,18.223-14.765,32.988-32.988,32.988s-32.988-14.765-32.988-32.988
		C250.449,234.693,265.214,219.928,283.437,219.928z"/>
</g>
</svg>
