<?xml version="1.0" encoding="utf-8"?>
<!-- Generator: Adobe Illustrator 17.0.0, SVG Export Plug-In . SVG Version: 6.00 Build 0)  -->
<!DOCTYPE svg PUBLIC "-//W3C//DTD SVG 1.1//EN" "http://www.w3.org/Graphics/SVG/1.1/DTD/svg11.dtd">
<svg version="1.1" id="Capa_1" xmlns="http://www.w3.org/2000/svg" xmlns:xlink="http://www.w3.org/1999/xlink" x="0px" y="0px"
	 width="443.552px" height="503.711px" viewBox="0 0 443.552 503.711" enable-background="new 0 0 443.552 503.711"
	 xml:space="preserve">
<g>
	<g>
		<path fill="#0082FF" d="M441.273,296.62c-8.501-30.455-36.566-51.727-68.248-51.727h-94.456v-60.302
			c0-32.366-26.336-58.701-58.701-58.701h-25.081c-8.842,0-16.009,7.167-16.009,16.009v57.101c0,26.186-10.262,52.847-28.924,75.133
			l-8.437,8.567v-11.657c0-8.842-7.167-16.009-16.009-16.009H16.009C7.167,255.032,0,262.199,0,271.041v216.661
			c0,8.842,7.167,16.009,16.009,16.009h109.398c8.837,0,16.009-7.167,16.009-16.009v-4.802h217.729
			c33.492,0,55.387-15.748,59.993-42.756l22.851-114.28C444.31,315.793,444.027,305.536,441.273,296.62z M109.397,471.693H32.018
			V287.051h77.379V471.693z M410.691,319.128l-23.033,115.189c-0.7,4.098-2.829,16.565-28.513,16.565H141.416V328.331l31.688-32.176
			c0.288-0.294,0.565-0.593,0.827-0.907c23.775-28.155,36.865-62.335,36.865-96.249v-41.091h9.072
			c14.713,0,26.682,11.97,26.682,26.682v76.311c0,8.842,7.167,16.009,16.009,16.009h110.465c17.37,0,32.75,11.649,37.526,28.726
			C411.747,309.517,411.832,314.149,410.691,319.128z"/>
		<path fill="#0082FF" d="M229.468,100.807c8.842,0,16.009-7.167,16.009-16.009V18.092c0.001-8.842-7.166-16.009-16.009-16.009
			c-8.842,0-16.009,7.167-16.009,16.009v66.706C213.459,93.64,220.626,100.807,229.468,100.807z"/>
		<path fill="#0082FF" d="M63.199,66.291l57.634,41.624c2.833,2.044,6.111,3.031,9.36,3.031c4.968,0,9.862-2.305,12.99-6.639
			c5.175-7.167,3.558-17.173-3.608-22.349L81.941,40.335c-7.167-5.171-17.173-3.559-22.349,3.607
			C54.416,51.109,56.033,61.115,63.199,66.291z"/>
		<path fill="#0082FF" d="M323.94,110.947c3.266,0,6.569-0.998,9.413-3.073l57.101-41.624c7.145-5.209,8.715-15.22,3.501-22.366
			c-5.198-7.14-15.214-8.72-22.366-3.507l-57.1,41.624c-7.145,5.208-8.715,15.219-3.501,22.366
			C314.121,108.668,318.993,110.947,323.94,110.947z"/>
	</g>
</g>
</svg>
