<?xml version="1.0" encoding="utf-8"?>
<!-- Generator: Adobe Illustrator 17.0.0, SVG Export Plug-In . SVG Version: 6.00 Build 0)  -->
<!DOCTYPE svg PUBLIC "-//W3C//DTD SVG 1.1//EN" "http://www.w3.org/Graphics/SVG/1.1/DTD/svg11.dtd">
<svg version="1.1" id="Capa_1" xmlns="http://www.w3.org/2000/svg" xmlns:xlink="http://www.w3.org/1999/xlink" x="0px" y="0px"
	 width="376.22px" height="372.101px" viewBox="6 -90.642 376.22 372.101" enable-background="new 6 -90.642 376.22 372.101"
	 xml:space="preserve">
<path fill="#FFFFFF" d="M382.22,67.938c0,0-51.829,8.846-73.974-16.014c-10.012-11.239-10.012-21.251-10.012-21.251
	s26.141-44.496,33.372-55.62c7.231-11.124-2.781-11.68-11.124-5.562C312.14-24.391,273.206-1.03,273.206-1.03
	s-4.107-4.652-10.227-9.527l48.18-80.085l-32.045,5.269c-40.522,6.66-75.669,41.189-83.716,49.601
	c-10.434,5.96-55.2,32.132-88.855,61.197c-36.907,31.875-92.913,93.207-95.28,95.803l-4.795,5.26l1.036,7.042
	c8.445,57.425,31.928,99.111,69.798,123.901c31.327,20.507,64.496,23.569,81.479,23.569c7.813,0,12.671-0.611,13.567-0.733
	l12.923-1.772l0.488-116.982c6.818,4.628,14.423,9.585,22.719,14.803c15.772,9.922,31.753,14.952,47.498,14.952
	c5.167-0.001,10.161-0.551,14.895-1.641c6.948,6.876,17.528,17.486,24.014,24.655c6.12,6.765,13.905,10.341,22.51,10.34
	c11.468-0.001,21.562-5.944,33.256-12.829c1.332-0.785,2.689-1.583,4.07-2.386c10.536-6.118,17.735-16.615,20.271-29.557
	c2.823-14.415-0.591-30.51-8.698-41.001c-6.303-8.158-18.109-23.566-28.392-36.992C351.633,95.93,366.42,85.13,382.22,67.938z
	 M311.97,117.393c11.218,14.647,23.934,31.249,30.557,39.819c2.862,3.704,4.148,10.954,2.988,16.864
	c-0.599,3.06-2.104,7.166-5.877,9.356c-1.436,0.834-2.845,1.664-4.233,2.481c-6.379,3.756-14.273,8.404-17.806,8.66
	c-0.105-0.093-0.253-0.235-0.442-0.443c-10.36-11.45-29.279-29.925-31.74-32.323l-7.811-8.143l-9.661,5.506
	c-0.879,0.378-5.169,2.061-11.969,2.061c-9.998,0.001-20.599-3.478-31.508-10.34c-32.209-20.261-43.482-30.088-43.557-30.154
	l-24.923-22.431l-0.637,152.609c-31.957-0.883-99.433-14.93-117.005-114.767c15.279-16.526,58.505-62.669,87.827-87.994
	c35.059-30.277,85.448-58.603,85.952-58.885l2.157-1.207l1.657-1.834c0.154-0.171,11.831-12.936,28.65-24.482l-11.61,19.298
	l-18.729,25.71c0,0,31.726,93.126,89.91,100.44L311.97,117.393z"/>
</svg>
