<?xml version="1.0" encoding="utf-8"?>
<!-- Generator: Adobe Illustrator 17.0.0, SVG Export Plug-In . SVG Version: 6.00 Build 0)  -->
<!DOCTYPE svg PUBLIC "-//W3C//DTD SVG 1.1//EN" "http://www.w3.org/Graphics/SVG/1.1/DTD/svg11.dtd">
<svg version="1.1" id="Capa_1" xmlns="http://www.w3.org/2000/svg" xmlns:xlink="http://www.w3.org/1999/xlink" x="0px" y="0px"
	 width="40.5px" height="40.5px" viewBox="0 0 40.5 40.5" enable-background="new 0 0 40.5 40.5" xml:space="preserve">
<path fill="#FFFFFF" d="M20.25,40.5C9.084,40.5,0,31.416,0,20.25S9.084,0,20.25,0S40.5,9.084,40.5,20.25S31.416,40.5,20.25,40.5z
	 M20.25,1.5C9.911,1.5,1.5,9.911,1.5,20.25S9.911,39,20.25,39S39,30.589,39,20.25S30.589,1.5,20.25,1.5z"/>
<g>
	<path fill="#FFFFFF" d="M16.745,12.767H19.4v13.564h-2.655v-5.62h-5.039v5.62H9.033V12.767h2.674v5.387h5.039V12.767z"/>
	<path fill="#FFFFFF" d="M27.306,12.767c1.86,0,3.414,0.652,4.661,1.957c1.247,1.305,1.87,2.914,1.87,4.825
		c0,1.912-0.624,3.521-1.87,4.825c-1.247,1.305-2.8,1.957-4.661,1.957h-5.387V12.767H27.306z M27.306,23.773
		c1.176,0,2.132-0.39,2.868-1.172c0.736-0.781,1.104-1.799,1.104-3.052s-0.368-2.271-1.104-3.052
		c-0.736-0.781-1.692-1.172-2.868-1.172h-2.713v8.449H27.306z"/>
</g>
</svg>
