<?xml version="1.0" encoding="utf-8"?>
<!-- Generator: Adobe Illustrator 17.0.0, SVG Export Plug-In . SVG Version: 6.00 Build 0)  -->
<!DOCTYPE svg PUBLIC "-//W3C//DTD SVG 1.1//EN" "http://www.w3.org/Graphics/SVG/1.1/DTD/svg11.dtd">
<svg version="1.1" id="Capa_1" xmlns="http://www.w3.org/2000/svg" xmlns:xlink="http://www.w3.org/1999/xlink" x="0px" y="0px"
	 width="33.473px" height="49.558px" viewBox="0 0 33.473 49.558" enable-background="new 0 0 33.473 49.558" xml:space="preserve">
<path fill="#5F4BD1" d="M32.357,0H1.116C0.499,0,0,0.5,0,1.116V48.44c-0.001,0.616,0.498,1.117,1.114,1.118
	c0.297,0.001,0.582-0.117,0.792-0.328l14.831-10.833l14.831,10.831c0.435,0.436,1.142,0.437,1.578,0.002
	c0.21-0.209,0.328-0.493,0.328-0.79V1.116C33.473,0.5,32.973,0,32.357,0z"/>
<path fill="#FAFAFA" d="M28.409,17.174c-0.149-0.461-0.578-0.772-1.062-0.772H20.05l-2.254-6.938
	c-0.259-0.586-0.945-0.851-1.531-0.591c-0.264,0.117-0.475,0.328-0.591,0.591l-2.254,6.938H6.125
	c-0.616,0.007-1.11,0.513-1.102,1.129c0.004,0.347,0.169,0.671,0.446,0.879l5.911,4.3l-2.254,6.938
	c-0.191,0.586,0.129,1.216,0.715,1.407c0.341,0.111,0.714,0.052,1.003-0.159l5.891-4.287l5.902,4.287
	c0.498,0.363,1.196,0.254,1.559-0.244c0.211-0.29,0.27-0.663,0.159-1.003l-2.265-6.938l5.902-4.289
	C28.389,18.14,28.557,17.636,28.409,17.174z"/>
</svg>
