<?xml version="1.0" encoding="utf-8"?>
<!-- Generator: Adobe Illustrator 17.0.0, SVG Export Plug-In . SVG Version: 6.00 Build 0)  -->
<!DOCTYPE svg PUBLIC "-//W3C//DTD SVG 1.1//EN" "http://www.w3.org/Graphics/SVG/1.1/DTD/svg11.dtd">
<svg version="1.1" id="Capa_1" xmlns="http://www.w3.org/2000/svg" xmlns:xlink="http://www.w3.org/1999/xlink" x="0px" y="0px"
	 width="40.5px" height="40.5px" viewBox="0 0 40.5 40.5" enable-background="new 0 0 40.5 40.5" xml:space="preserve">
<path fill="#FF1338" d="M20.25,40.5C9.084,40.5,0,31.416,0,20.25S9.084,0,20.25,0S40.5,9.084,40.5,20.25S31.416,40.5,20.25,40.5z"/>
<g>
	<path fill="#FFFFFF" d="M13.966,23.773h5.717v2.558h-8.391V12.767h8.293v2.558h-5.62v2.888h5.135v2.519h-5.135V23.773z"/>
	<path fill="#FFFFFF" d="M26.194,26.603c-1.344,0-2.474-0.301-3.391-0.901c-0.917-0.601-1.563-1.417-1.938-2.451l2.287-1.337
		c0.529,1.382,1.569,2.073,3.12,2.073c0.749,0,1.298-0.136,1.647-0.407c0.349-0.271,0.523-0.614,0.523-1.027
		c0-0.478-0.213-0.849-0.639-1.114c-0.427-0.265-1.189-0.552-2.287-0.862c-0.607-0.181-1.121-0.361-1.541-0.542
		c-0.42-0.181-0.84-0.423-1.26-0.727c-0.42-0.304-0.74-0.688-0.959-1.153c-0.22-0.465-0.329-1.007-0.329-1.627
		c0-1.227,0.436-2.206,1.308-2.936c0.872-0.729,1.921-1.095,3.149-1.095c1.098,0,2.063,0.268,2.897,0.804
		c0.833,0.536,1.482,1.282,1.947,2.238l-2.248,1.298c-0.543-1.163-1.409-1.744-2.597-1.744c-0.556,0-0.992,0.126-1.308,0.378
		c-0.317,0.252-0.475,0.578-0.475,0.979c0,0.426,0.178,0.772,0.533,1.037c0.355,0.265,1.037,0.552,2.044,0.862
		c0.413,0.129,0.727,0.229,0.94,0.3c0.213,0.071,0.503,0.181,0.872,0.33c0.368,0.149,0.652,0.288,0.853,0.417
		c0.2,0.129,0.429,0.304,0.688,0.523s0.456,0.446,0.591,0.678s0.252,0.514,0.349,0.843c0.097,0.33,0.146,0.688,0.146,1.076
		c0,1.253-0.456,2.248-1.366,2.984C28.839,26.235,27.654,26.603,26.194,26.603z"/>
</g>
</svg>
