<?xml version="1.0" encoding="utf-8"?>
<!-- Generator: Adobe Illustrator 17.0.0, SVG Export Plug-In . SVG Version: 6.00 Build 0)  -->
<!DOCTYPE svg PUBLIC "-//W3C//DTD SVG 1.1//EN" "http://www.w3.org/Graphics/SVG/1.1/DTD/svg11.dtd">
<svg version="1.1" width="54px" height="22px" xmlns="http://www.w3.org/2000/svg" xmlns:xlink="http://www.w3.org/1999/xlink" x="0px" y="0px" viewBox="0 0 187.087 76.359" enable-background="new 0 0 187.087 76.359" xml:space="preserve">
	<path fill-rule="evenodd" clip-rule="evenodd" fill="#FFFFFF" d="M148.691,52.687c8.051,0,14.577-6.536,14.577-14.599
		c0-8.063-6.526-14.599-14.577-14.599c-8.05,0-14.577,6.536-14.577,14.599C134.114,46.151,140.641,52.687,148.691,52.687
		L148.691,52.687z"/>
	<path fill-rule="evenodd" clip-rule="evenodd" fill="#FFFFFF" d="M148.867-0.183c-16.711,0-30.915,10.741-36.108,25.703
		c0.198-1.468,0.289-3.07,0.289-4.829c0-5.54-3.177-11.555-7.722-14.819c-4.25-3.068-8.542-4.94-13.682-4.94H58.544v75.386H89.57
		c6.128,0,11.379-2.253,16.615-6.014c4.843-3.464,7.936-9.626,7.936-15.464c0-0.273-0.003-0.543-0.007-0.812
		c6.038,13.177,19.328,22.33,34.754,22.33c21.107,0,38.219-17.135,38.219-38.271C187.087,16.952,169.975-0.183,148.867-0.183
		L148.867-0.183z M77.876,17.272h8.092c3.946,0,8.092,0.692,8.092,5.731c0.289,4.549-2.431,7.245-7.883,7.245l-8.3,0.03V17.272
		L77.876,17.272z M92.889,57.813c-1.683,1.388-3.957,1.289-6.036,1.289h-9.006v-13.84h8.214c4.974,0,9.231,1.291,9.446,7.101
		C95.506,54.247,94.374,56.722,92.889,57.813L92.889,57.813z M111.105,43.283c-1.483-1.962-3.637-3.816-6.757-5.613
		c3.525-1.823,5.786-4.056,7.135-7.036c-0.475,2.416-0.727,4.912-0.727,7.467C110.756,39.858,110.876,41.587,111.105,43.283
		L111.105,43.283z M148.691,58c-10.978,0-19.877-8.915-19.877-19.912c0-10.996,8.9-19.911,19.877-19.911
		c10.978,0,19.878,8.915,19.878,19.911C168.569,49.085,159.669,58,148.691,58L148.691,58z"/>
	<polygon fill-rule="evenodd" clip-rule="evenodd" fill="#FFFFFF" points="34.886,28.598 19.266,28.598 19.266,0.795 0,0.795 
		0,76.446 19.171,76.446 19.171,46.918 34.791,46.918 34.791,76.446 54.309,76.446 54.309,0.795 34.886,0.795 34.886,28.598 "/>
</svg>
