<?xml version="1.0" encoding="utf-8"?>
<!-- Generator: Adobe Illustrator 17.0.0, SVG Export Plug-In . SVG Version: 6.00 Build 0)  -->
<!DOCTYPE svg PUBLIC "-//W3C//DTD SVG 1.1//EN" "http://www.w3.org/Graphics/SVG/1.1/DTD/svg11.dtd">
<svg version="1.1" id="Capa_1" xmlns="http://www.w3.org/2000/svg" xmlns:xlink="http://www.w3.org/1999/xlink" x="0px" y="0px"
	 width="376.22px" height="376.223px" viewBox="6 -94.763 376.22 376.223" enable-background="new 6 -94.763 376.22 376.223"
	 xml:space="preserve">
<path fill="#FFFFFF" d="M381.617,51.612c-1.505-4.991-5.616-8.728-10.728-9.752l-117.14-23.473l-46.751-105.37
	c-2.137-4.8-7.075-7.781-12.887-7.781c-5.813,0-10.751,2.981-12.889,7.784l-46.75,105.367L17.332,41.86
	c-5.112,1.024-9.223,4.761-10.728,9.754c-1.502,4.997-0.151,10.389,3.525,14.071l81.666,81.81L68.424,264.57
	c-1.038,5.198,0.883,10.481,5.013,13.788c2.496,1.996,5.632,3.096,8.832,3.096c1.98,0,3.9-0.406,5.71-1.209l106.131-47.25
	l106.132,47.25c1.813,0.807,3.74,1.215,5.729,1.215c3.188,0,6.318-1.102,8.813-3.102c4.13-3.306,6.051-8.589,5.013-13.788
	l-23.37-117.075l81.666-81.81C381.769,62.003,383.119,56.611,381.617,51.612z M194.11,203.417c-2.001,0-3.931,0.409-5.73,1.215
	l-86.963,38.725l19.514-97.739c0.923-4.641-0.518-9.407-3.855-12.75L48.695,64.376l98.459-19.735
	c4.483-0.895,8.268-3.927,10.123-8.109l36.833-83.007l36.833,83.006c1.855,4.184,5.639,7.215,10.121,8.11l98.462,19.735
	l-68.382,68.492c-3.338,3.343-4.779,8.11-3.854,12.752l19.514,97.737l-86.959-38.723
	C198.041,203.827,196.111,203.417,194.11,203.417z"/>
</svg>
