<?xml version="1.0" encoding="utf-8"?>
<!-- Generator: Adobe Illustrator 17.0.0, SVG Export Plug-In . SVG Version: 6.00 Build 0)  -->
<!DOCTYPE svg PUBLIC "-//W3C//DTD SVG 1.1//EN" "http://www.w3.org/Graphics/SVG/1.1/DTD/svg11.dtd">
<svg version="1.1" id="Capa_1" xmlns="http://www.w3.org/2000/svg" xmlns:xlink="http://www.w3.org/1999/xlink" x="0px" y="0px"
	 width="473.429px" height="427.865px" viewBox="0 82.372 473.429 427.865" enable-background="new 0 82.372 473.429 427.865"
	 xml:space="preserve">
<path fill="#4E3EBB" d="M269.224,82.372c-112.779,0-204.205,91.426-204.205,204.205s91.426,204.205,204.205,204.205
	s204.205-91.426,204.205-204.205S382.003,82.372,269.224,82.372z M269.224,424.771c-76.323,0-138.194-61.872-138.194-138.194
	s61.872-138.194,138.194-138.194s138.194,61.872,138.194,138.194S345.547,424.771,269.224,424.771z"/>
<path fill="#3A2776" d="M9.095,457.225c-12.127,12.127-12.127,31.789,0,43.916c12.127,12.127,31.789,12.127,43.916,0l52.687-52.55
	c-14.726-14.863-27.434-31.724-37.694-50.138L9.095,457.225z"/>
</svg>
