<?xml version="1.0" encoding="utf-8"?>
<!-- Generator: Adobe Illustrator 17.0.0, SVG Export Plug-In . SVG Version: 6.00 Build 0)  -->
<!DOCTYPE svg PUBLIC "-//W3C//DTD SVG 1.1//EN" "http://www.w3.org/Graphics/SVG/1.1/DTD/svg11.dtd">
<svg version="1.1" width="35px" height="22px" xmlns="http://www.w3.org/2000/svg" xmlns:xlink="http://www.w3.org/1999/xlink" x="0px" y="0px" viewBox="-0.752 -1.487 320.835 288.995" enable-background="new -0.752 -1.487 320.835 288.995" xml:space="preserve">
	<path fill="#FFFFFF" d="M310.556,94.401C273.298,58.589,204.153-1.487,159.667-1.487c-44.486,0-113.633,60.078-150.891,95.889
		c-11.589,11.145-12.747,28.948-2.694,41.412l31.808,39.44v47.369c0,0.345,0.021,0.699,0.064,1.068l-0.039,0.006l0.138,0.755
		c2.759,15.06,14.21,30.072,31.42,41.188c22.148,14.306,53.337,21.868,90.193,21.868c36.424,0,67.399-7.438,89.577-21.51
		c17.565-11.145,29.242-26.288,32.037-41.546l0.123-0.753l-0.024-0.004c0.043-0.371,0.064-0.726,0.064-1.072v-47.369l31.807-39.44
		C323.304,123.35,322.147,105.546,310.556,94.401z M297.461,123.08l-30.297,37.567c-38.096-6.447-73.243-9.582-107.432-9.582
		c-34.275,0-69.465,3.134-107.563,9.582L21.872,123.08c-3.456-4.284-3.051-10.195,0.962-14.054
		c58.779-56.498,109.931-90.228,136.833-90.228c26.9,0,78.052,33.729,136.832,90.226
		C300.511,112.883,300.916,118.795,297.461,123.08z M256.795,230.755c-19.83,31.7-69.251,36.468-97.128,36.468
		c-27.876,0-77.297-4.769-97.129-36.468c43.131-6.039,70.428-8.396,97.085-8.396C186.328,222.358,213.643,224.715,256.795,230.755z
		 M58.175,180.226c37.194-6.063,69.45-8.888,101.456-8.888c32.02,0,64.299,2.826,101.527,8.889v30.644
		c-44.559-6.331-73.07-8.801-101.486-8.801c-28.423,0-56.937,2.47-101.496,8.801V180.226z"/>
	<path fill="#FFFFFF" d="M186.565,60.901h-53.797c-5.593,0-10.143,4.55-10.143,10.143v25.317c0,21.828,16.505,29.796,28.557,35.614
		c1.357,0.655,2.665,1.287,3.895,1.911c1.416,0.718,3.003,1.098,4.591,1.098c0,0,0,0,0,0c1.587,0,3.174-0.38,4.589-1.098
		c1.186-0.602,2.442-1.211,3.743-1.843c12.116-5.879,28.708-13.931,28.708-35.682V71.044
		C196.708,65.451,192.157,60.901,186.565,60.901z M176.422,81.186V96.36c0,7.861-3.786,10.923-16.763,17.176
		c-12.399-5.986-16.748-8.886-16.748-17.176V81.186H176.422z"/>
</svg>
