<?xml version="1.0" encoding="utf-8"?>
<!-- Generator: Adobe Illustrator 17.0.0, SVG Export Plug-In . SVG Version: 6.00 Build 0)  -->
<!DOCTYPE svg PUBLIC "-//W3C//DTD SVG 1.1//EN" "http://www.w3.org/Graphics/SVG/1.1/DTD/svg11.dtd">
<svg version="1.1" id="Capa_1" xmlns="http://www.w3.org/2000/svg" xmlns:xlink="http://www.w3.org/1999/xlink" x="0px" y="0px"
	 width="292.312px" height="292.804px" viewBox="0 -6.046 292.312 292.804" enable-background="new 0 -6.046 292.312 292.804"
	 xml:space="preserve">
<path fill="#FFFFFF" d="M284.339,119.9L166.884,2.449c-5.476-5.478-12.757-8.495-20.502-8.495c-7.745,0-15.026,3.017-20.504,8.495
	L8.536,119.788l-0.122,0.124c-11.241,11.305-11.216,29.673,0.055,40.943c5.122,5.125,11.929,8.125,19.175,8.455
	c0.33,0.03,0.659,0.045,0.991,0.045h2.177v83.895c0,18.477,15.033,33.509,33.511,33.509h45.931c6.028,0,10.932-4.904,10.932-10.932
	v-67.735c0-6.422,5.226-11.647,11.649-11.647h27.092c6.422,0,11.647,5.225,11.647,11.647v67.735c0,6.028,4.904,10.932,10.932,10.932
	h45.931c18.478,0,33.511-15.032,33.511-33.509v-83.895h1.839c7.743,0,15.025-3.018,20.504-8.497
	C295.572,149.572,295.59,131.207,284.339,119.9z M159.928,174.58h-27.092c-18.479,0-33.513,15.033-33.513,33.511v56.803h-35
	c-6.422,0-11.647-5.224-11.647-11.645v-94.826c0-6.028-4.904-10.932-10.932-10.932H29.273c-0.145-0.009-0.288-0.015-0.431-0.017
	c-1.861-0.033-3.604-0.77-4.909-2.077c-2.548-2.548-2.76-6.563-0.638-9.357l0.313,0l0.559-0.964l117.174-117.17
	c1.345-1.346,3.134-2.088,5.04-2.088c1.904,0,3.694,0.742,5.042,2.089l117.419,117.415c2.765,2.784,2.759,7.305-0.011,10.078
	c-1.349,1.349-3.141,2.092-5.044,2.092h-12.771c-6.028,0-10.932,4.904-10.932,10.932v94.826c0,6.421-5.225,11.645-11.647,11.645
	h-34.999v-56.803C193.438,189.613,178.406,174.58,159.928,174.58z"/>
</svg>
