<?xml version="1.0" encoding="utf-8"?>
<!-- Generator: Adobe Illustrator 17.0.0, SVG Export Plug-In . SVG Version: 6.00 Build 0)  -->
<!DOCTYPE svg PUBLIC "-//W3C//DTD SVG 1.1//EN" "http://www.w3.org/Graphics/SVG/1.1/DTD/svg11.dtd">
<svg version="1.1" xmlns="http://www.w3.org/2000/svg" xmlns:xlink="http://www.w3.org/1999/xlink" x="0px" y="0px" width="22px" height="22px" viewBox="0 0 175.748 75.645" enable-background="new 0 0 175.748 75.645" xml:space="preserve">
	<path fill-rule="evenodd" clip-rule="evenodd" fill="#FFFFFF" d="M46.189,37.937c0-20.218,16.129-36.573,36.119-36.573
		c19.914,0,35.967,16.355,35.967,36.573c0,20.218-16.053,36.574-35.967,36.574C62.318,74.51,46.189,58.229,46.189,37.937
		L46.189,37.937z M0,75.645V0h45.357l1.363,20.748H21.354v9.92h20.747v20.444H21.354v24.533H0L0,75.645z M175.748,75.419
		l-22.716-39.072l20.747-36.043h-22.943l-9.238,16.052l-9.39-16.052h-23.398l20.975,36.271l-22.337,38.844h22.943l10.827-18.779
		l10.98,18.779H175.748L175.748,75.419z M88.518,52.93V22.943c0-3.559-2.65-6.588-6.209-6.588c-3.256,0-6.058,3.029-6.058,6.588
		V52.93c0,3.33,2.802,6.133,6.058,6.133C85.867,59.063,88.518,56.639,88.518,52.93L88.518,52.93z"/>
</svg>
