<?xml version="1.0" encoding="utf-8"?>
<!-- Generator: Adobe Illustrator 17.0.0, SVG Export Plug-In . SVG Version: 6.00 Build 0)  -->
<!DOCTYPE svg PUBLIC "-//W3C//DTD SVG 1.1//EN" "http://www.w3.org/Graphics/SVG/1.1/DTD/svg11.dtd">
<svg version="1.1" width="35px" height="22px" xmlns="http://www.w3.org/2000/svg" xmlns:xlink="http://www.w3.org/1999/xlink" x="0px" y="0px" viewBox="0 0 286.758 286.758" enable-background="new 0 0 286.758 286.758" xml:space="preserve">
	<path fill="#FFFFFF" d="M143.379,0C64.319,0,0,64.319,0,143.379s64.319,143.379,143.379,143.379s143.379-64.319,143.379-143.379
		S222.438,0,143.379,0z M266.527,143.379c0,67.904-55.244,123.148-123.148,123.148c-32.706,0-63.526-12.737-86.785-35.864
		c-8.96-8.909-16.474-19.086-22.332-30.25c-9.18-17.489-14.032-37.211-14.032-57.035c0-67.905,55.244-123.149,123.149-123.149
		c31.027,0,60.691,11.63,83.529,32.749c11.54,10.67,20.819,23.226,27.58,37.318C262.477,106.951,266.527,124.811,266.527,143.379z"
		/>
	<path fill="#FFFFFF" d="M97.372,129.696c9.776,0,17.73-7.954,17.73-17.73s-7.954-17.73-17.73-17.73s-17.73,7.954-17.73,17.73
		S87.595,129.696,97.372,129.696z"/>
	<path fill="#FFFFFF" d="M191.609,129.696c9.776,0,17.73-7.954,17.73-17.73s-7.954-17.73-17.73-17.73s-17.73,7.954-17.73,17.73
		S181.833,129.696,191.609,129.696z"/>
	<path fill="#FFFFFF" d="M202.088,171.721c-12.749,19.727-35.333,31.982-58.942,31.982c-2.622,0-5.269-0.152-7.869-0.452
		c-20.456-2.359-39.375-14.146-50.609-31.531l-1.357-2.1L66.32,180.601l1.357,2.1c14.479,22.408,38.883,37.604,65.282,40.648
		c3.353,0.386,6.768,0.582,10.15,0.582c30.425,0,59.536-15.799,75.971-41.23l1.357-2.1l-16.992-10.98L202.088,171.721z"/>
</svg>
