<?xml version="1.0" encoding="utf-8"?>
<!-- Generator: Adobe Illustrator 17.0.0, SVG Export Plug-In . SVG Version: 6.00 Build 0)  -->
<!DOCTYPE svg PUBLIC "-//W3C//DTD SVG 1.1//EN" "http://www.w3.org/Graphics/SVG/1.1/DTD/svg11.dtd">
<svg version="1.1" id="Capa_1" xmlns="http://www.w3.org/2000/svg" xmlns:xlink="http://www.w3.org/1999/xlink" x="0px" y="0px"
	 width="423.91px" height="366.103px" viewBox="6 -84.644 423.91 366.103" enable-background="new 6 -84.644 423.91 366.103"
	 xml:space="preserve">
<path fill="#FFFFFF" d="M424.268,75.948c-3.48-2.266-8.015-2.64-11.825-0.965l-102.934,45.312V80.556
	c0-13.279-10.803-24.083-24.082-24.083H30.082C16.803,56.473,6,67.276,6,80.556v176.821c0,13.279,10.803,24.083,24.082,24.083
	h255.345c13.279,0,24.082-10.804,24.082-24.083v-38.165l103.024,44.367c3.807,1.628,8.309,1.237,11.776-1.037
	c3.504-2.308,5.601-6.195,5.601-10.396V86.378C429.91,82.153,427.801,78.254,424.268,75.948z M284.611,256.56H30.9V81.372h253.711
	V256.56z M405.012,233.227l-95.503-41.131v-44.593l95.503-42.046V233.227z"/>
<path fill="#FFFFFF" d="M93.543,47.279c36.371,0,65.961-29.59,65.961-65.961s-29.59-65.961-65.961-65.961
	s-65.961,29.59-65.961,65.961S57.172,47.279,93.543,47.279z M93.543-59.744c22.642,0,41.063,18.42,41.063,41.062
	S116.185,22.38,93.543,22.38c-22.642,0-41.062-18.42-41.062-41.062S70.901-59.744,93.543-59.744z"/>
<path fill="#FFFFFF" d="M202.241,47.279c36.372,0,65.962-29.59,65.962-65.961s-29.59-65.961-65.962-65.961
	c-36.371,0-65.961,29.59-65.961,65.961S165.87,47.279,202.241,47.279z M202.241-59.744c22.642,0,41.062,18.42,41.062,41.062
	s-18.42,41.062-41.062,41.062s-41.062-18.42-41.062-41.062S179.6-59.744,202.241-59.744z"/>
</svg>
