<?xml version="1.0" encoding="utf-8"?>
<!-- Generator: Adobe Illustrator 17.0.0, SVG Export Plug-In . SVG Version: 6.00 Build 0)  -->
<!DOCTYPE svg PUBLIC "-//W3C//DTD SVG 1.1//EN" "http://www.w3.org/Graphics/SVG/1.1/DTD/svg11.dtd">
<svg version="1.1" width="35px" height="22px" xmlns="http://www.w3.org/2000/svg" xmlns:xlink="http://www.w3.org/1999/xlink" x="0px" y="0px" viewBox="0 0 347.273 281.459" enable-background="new 0 0 347.273 281.459" xml:space="preserve">
	<path fill="#FFFFFF" d="M339.988,128.713c-6.74-13.402-17.64-23.698-31.191-29.689c0.124-2.042,0.202-4.093,0.202-6.161
		c0-25.39-8.704-48.814-24.511-65.96C268.493,9.555,246.542,0,222.68,0c-17.837,0-34.172,5.639-48.55,16.759
		c-7.259,5.613-13.834,12.483-19.631,20.496c-5.795-8.013-12.372-14.883-19.628-20.496C120.493,5.639,104.158,0,86.321,0
		C62.457,0,40.508,9.555,24.513,26.903C8.706,44.049,0,67.473,0,92.863c0,26.133,9.739,50.054,30.647,75.284
		c18.704,22.568,45.586,45.478,76.717,72.007l0.054,0.047c10.618,9.048,22.653,19.305,35.136,30.22
		c3.305,2.895,7.546,4.489,11.945,4.489c4.397,0,8.64-1.594,11.943-4.484c3.78-3.306,7.507-6.539,11.175-9.705
		c2.815,4.278,5.72,8.719,8.681,13.303c2.131,3.306,5.389,5.724,9.175,6.808c1.455,0.417,2.96,0.628,4.473,0.628
		c2.374,0,4.764-0.534,6.91-1.544c11.168-5.255,22.021-10.189,30.742-14.155c27.292-12.416,50.861-23.139,68.731-35.363
		c20.345-13.915,32.359-29.267,37.812-48.311C349.449,163.546,347.975,144.592,339.988,128.713z M154.474,256.802
		c-12.575-10.995-24.657-21.293-35.315-30.376l-0.057-0.047c-30.487-25.982-56.818-48.42-74.52-69.781
		c-18.315-22.099-26.484-41.756-26.484-63.734c0-20.831,7.004-39.898,19.72-53.691c12.53-13.589,29.754-21.071,48.503-21.071
		c13.732,0,26.342,4.366,37.477,12.976c9.925,7.676,16.837,17.379,20.887,24.169c2.084,3.491,5.752,5.575,9.814,5.575
		c4.062,0,7.73-2.084,9.814-5.575c4.052-6.789,10.965-16.493,20.887-24.169c11.134-8.609,23.745-12.976,37.479-12.976
		c18.747,0,35.973,7.483,48.5,21.071c12.716,13.794,19.72,32.861,19.72,53.691c0,0.378-0.016,0.751-0.021,1.127
		c-10.082-1.259-20.224,0.075-30.069,4.001c-5.303,2.114-10.473,4.953-15.414,8.46c-2.334-5.585-5.218-10.73-8.6-15.335
		c-8.258-11.238-19.121-18.848-32.287-22.617c-5.942-1.701-12.019-2.563-18.06-2.563c-11.613,0-23.058,3.231-33.095,9.346
		c-15.179,9.248-26.461,24.55-31.77,43.089c-5.452,19.043-3.381,38.428,6.517,61.003c8.661,19.754,22.907,41.233,39.437,66.124
		C163.274,249.168,158.915,252.934,154.474,256.802z M325.676,176.799c-4.209,14.7-13.521,26.342-30.19,37.745
		c-16.479,11.273-39.318,21.664-65.842,33.732c-8.134,3.698-18.118,8.238-28.628,13.138c-6.155-9.497-12.042-18.361-17.317-26.305
		c-16.088-24.228-29.982-45.151-38.004-63.45c-8.111-18.499-9.851-33.303-5.643-48.003c3.976-13.887,12.249-25.241,23.296-31.971
		c7.015-4.272,15.016-6.53,23.138-6.53c4.253,0,8.538,0.609,12.736,1.812c8.982,2.571,16.416,7.794,22.095,15.523
		c5.144,7,7.906,14.818,9.318,20.144c1.034,3.9,3.965,6.89,7.839,7.998c3.821,1.094,7.986,0.083,10.885-2.637
		c4.018-3.772,10.501-8.944,18.566-12.162c8.882-3.542,18.007-4.042,26.964-1.478c12.338,3.532,22.261,11.696,27.939,22.988
		C328.64,148.9,329.651,162.913,325.676,176.799z"/>
</svg>
