<?xml version="1.0" encoding="utf-8"?>
<!-- Generator: Adobe Illustrator 17.0.0, SVG Export Plug-In . SVG Version: 6.00 Build 0)  -->
<!DOCTYPE svg PUBLIC "-//W3C//DTD SVG 1.1//EN" "http://www.w3.org/Graphics/SVG/1.1/DTD/svg11.dtd">
<svg version="1.1" width="35px" height="22px" xmlns="http://www.w3.org/2000/svg" xmlns:xlink="http://www.w3.org/1999/xlink" x="0px" y="0px" viewBox="11 -1.242 263.6 292" enable-background="new 11 -1.242 263.6 292" xml:space="preserve">
	<path fill="#FFFFFF" d="M274.6,121.091c0-67.455-59.125-122.333-131.8-122.333S11,53.636,11,121.091
		c0,42.137,23.79,81.706,62.285,103.935L63.21,280.427c-0.88,4.733,2.254,9.302,6.984,10.183c0.526,0.099,1.066,0.148,1.606,0.148
		h142c4.816,0,8.734-3.918,8.734-8.733c0-0.523-0.047-1.048-0.141-1.563l-10.079-55.418C250.809,202.797,274.6,163.22,274.6,121.091
		z M198.592,212.613c-3.439,1.771-5.286,5.52-4.594,9.326l9.33,51.352H189.4v-28.4h-17.467v28.4h-20.4v-37.867h-17.467v37.867h-20.4
		v-28.4H96.2v28.4H82.273l9.338-51.35c0.693-3.808-1.153-7.556-4.597-9.329c-36.114-18.561-58.548-53.63-58.548-91.521
		c0-57.824,51.29-104.867,114.333-104.867s114.333,47.043,114.333,104.867C257.133,158.98,234.703,194.049,198.592,212.613z"/>
	<path fill="#FFFFFF" d="M157.096,187.987c-0.837-3.346-3.832-5.683-7.282-5.684h-14.029c-3.449,0.001-6.443,2.338-7.282,5.685
		l-3.506,14.026c-1.006,4.016,1.442,8.101,5.458,9.107c0.596,0.149,1.209,0.225,1.824,0.225h21.043c4.139,0,7.507-3.368,7.507-7.507
		c0-0.615-0.076-1.228-0.225-1.822L157.096,187.987z"/>
	<path fill="#FFFFFF" d="M137.848,150.916c1.497-3.468,0.605-7.482-2.217-9.99l-60.44-53.724c-1.601-1.422-3.661-2.205-5.802-2.205
		c-1.533,0-3.045,0.406-4.371,1.173c-24.509,14.16-32.928,45.619-18.768,70.128c9.144,15.828,26.193,25.661,44.492,25.661
		c0,0,0.001,0,0.002,0c8.965,0,17.829-2.383,25.634-6.893C125.884,169.574,133.51,160.996,137.848,150.916z M90.714,164.424
		c-18.651,0-33.833-15.174-33.843-33.825c-0.005-9.945,4.38-19.359,11.867-25.754l50.133,44.556
		c-6.233,9.339-16.739,15.024-28.109,15.024l-0.028,4l0,0l0.003-4H90.714z"/>
	<path fill="#FFFFFF" d="M243.281,110.318c-4.339-10.081-11.962-18.656-21.462-24.146c-1.328-0.768-2.839-1.174-4.372-1.174
		c-2.146,0-4.209,0.786-5.807,2.209l-60.447,53.721c-2.82,2.511-3.708,6.526-2.211,9.984c8.119,18.86,26.635,31.047,47.172,31.048
		c0.001,0,0.001,0,0.003,0c6.984,0,13.806-1.412,20.272-4.196c12.594-5.421,22.324-15.422,27.396-28.162
		S248.703,122.912,243.281,110.318z M167.956,149.404l50.139-44.561c13.142,11.204,15.826,30.845,5.685,45.235
		c-6.331,8.983-16.672,14.346-27.713,14.346C184.698,164.424,174.192,158.741,167.956,149.404z"/>
</svg>
