<?xml version="1.0" encoding="utf-8"?>
<!-- Generator: Adobe Illustrator 17.0.0, SVG Export Plug-In . SVG Version: 6.00 Build 0)  -->
<!DOCTYPE svg PUBLIC "-//W3C//DTD SVG 1.1//EN" "http://www.w3.org/Graphics/SVG/1.1/DTD/svg11.dtd">
<svg version="1.1" id="Capa_1" xmlns="http://www.w3.org/2000/svg" xmlns:xlink="http://www.w3.org/1999/xlink" x="0px" y="0px"
	 width="377.642px" height="279.89px" viewBox="6 1.569 377.642 279.89" enable-background="new 6 1.569 377.642 279.89"
	 xml:space="preserve">
<path fill="#FFFFFF" d="M63.333,78.449c0,11.687,9.473,21.156,21.156,21.156c11.683,0,21.152-9.469,21.152-21.156
	c0-11.683-9.469-21.152-21.152-21.152C72.807,57.297,63.333,66.767,63.333,78.449z"/>
<path fill="#FFFFFF" d="M262.179,47.454c0-25.301-20.584-45.885-45.885-45.885H51.884C26.584,1.569,6,22.153,6,47.454v188.227
	c0,25.301,20.583,45.885,45.884,45.885h164.41c25.301,0,45.885-20.584,45.885-45.885V207.03l121.463,70.142V4.411L262.179,75.406
	V47.454z M361.352,43.219v195.338L239.88,168.447v66.531c0,13.095-10.653,23.749-23.749,23.749H51.361
	c-13.095,0-23.749-10.653-23.749-23.749V48.389c0-13.095,10.654-23.749,23.749-23.749h164.77c13.095,0,23.749,10.654,23.749,23.749
	v66.375L361.352,43.219z"/>
</svg>
