<?xml version="1.0" encoding="utf-8"?>
<!-- Generator: Adobe Illustrator 17.0.0, SVG Export Plug-In . SVG Version: 6.00 Build 0)  -->
<!DOCTYPE svg PUBLIC "-//W3C//DTD SVG 1.1//EN" "http://www.w3.org/Graphics/SVG/1.1/DTD/svg11.dtd">
<svg version="1.1" id="Capa_1" xmlns="http://www.w3.org/2000/svg" xmlns:xlink="http://www.w3.org/1999/xlink" x="0px" y="0px"
	 width="619.646px" height="488.953px" viewBox="0 21.284 619.646 488.953" enable-background="new 0 21.284 619.646 488.953"
	 xml:space="preserve">
<path fill="#FFFFFF" d="M540.965,219.965c-27.047,0-52.001-8.951-72.069-24.048L283.464,311.812L56.693,170.079v-56.693
	l226.771,141.733l153.212-95.758c-9.996-17.514-15.711-37.787-15.711-59.396c0-15.257,2.854-29.847,8.046-43.272H56.693
	c-31.322,0-56.409,25.37-56.409,56.693L0,453.543c0,31.324,25.37,56.693,56.693,56.693h453.543c31.322,0,56.693-25.37,56.693-56.693
	V217.139C558.568,218.984,549.882,219.965,540.965,219.965z"/>
<circle fill="#0BDD37" cx="540.965" cy="99.965" r="78.681"/>
</svg>
