<?xml version="1.0" encoding="utf-8"?>
<!-- Generator: Adobe Illustrator 17.0.0, SVG Export Plug-In . SVG Version: 6.00 Build 0)  -->
<!DOCTYPE svg PUBLIC "-//W3C//DTD SVG 1.1//EN" "http://www.w3.org/Graphics/SVG/1.1/DTD/svg11.dtd">
<svg version="1.1" id="Capa_1" xmlns="http://www.w3.org/2000/svg" xmlns:xlink="http://www.w3.org/1999/xlink" x="0px" y="0px"
	 width="40.5px" height="40.5px" viewBox="0 0 40.5 40.5" enable-background="new 0 0 40.5 40.5" xml:space="preserve">
<path fill="#FFFFFF" d="M20.25,40.5C9.084,40.5,0,31.416,0,20.25S9.084,0,20.25,0S40.5,9.084,40.5,20.25S31.416,40.5,20.25,40.5z
	 M20.25,1.5C9.911,1.5,1.5,9.911,1.5,20.25S9.911,39,20.25,39S39,30.589,39,20.25S30.589,1.5,20.25,1.5z"/>
<g>
	<path fill="#FFFFFF" d="M13.466,26.603c-2.041,0-3.727-0.678-5.058-2.035s-1.996-3.03-1.996-5.019c0-2.002,0.665-3.679,1.996-5.029
		c1.331-1.35,3.017-2.025,5.058-2.025c1.228,0,2.361,0.288,3.401,0.862c1.04,0.575,1.851,1.354,2.432,2.335l-2.306,1.337
		c-0.336-0.607-0.814-1.082-1.434-1.424c-0.62-0.342-1.318-0.514-2.093-0.514c-1.317,0-2.38,0.414-3.188,1.24
		c-0.808,0.827-1.211,1.899-1.211,3.217c0,1.305,0.403,2.371,1.211,3.197c0.807,0.827,1.87,1.24,3.188,1.24
		c0.775,0,1.476-0.171,2.103-0.514c0.626-0.342,1.102-0.811,1.424-1.405l2.306,1.337c-0.582,0.982-1.389,1.761-2.422,2.335
		S14.706,26.603,13.466,26.603z"/>
	<path fill="#FFFFFF" d="M29.804,26.332l-0.862-2.441h-5.572l-0.814,2.441h-2.887l4.748-13.564h3.314l4.785,13.564H29.804z
		 M24.24,21.39h3.818l-1.958-5.542L24.24,21.39z"/>
</g>
</svg>
